# xmcd
#
# Track frame offsets:
#	150
#	17315
#	39082
#	64751
#	78818
#	94933
#	114652
#	127458
#	139223
#	164335
#	189069
#	222265
#	238962
#	261134
#	275420
#	303129
#
# Disc length: 4336
#
# Revision: 1
# Processed by: cddbd v1.5.1PL0 Copyright (c) Steve Scherf et al.
# Submitted via: EasyCDDAExtractor 4.6.0.1
# Normalized: r0:TDELIM( - )
#
DISCID=d810ee10
DTITLE=Max D.F - Asi Se Baila y Se Goza Con La Ley Poderoza
DYEAR=1900
DGENRE=latin
TTITLE0=D.A.R - La Mona Linda
TTITLE1=Hermes Moreno - Como No Voy A Decirlo
TTITLE2=Orlando Aviles - Ven Rumbero
TTITLE3=Adolfo Pacheco - Cumbia Morena
TTITLE4=Angelo Rodrigez - El Montuno De La Felicidad
TTITLE5=William Milan - El Huerfanito
TTITLE6=Celia Cruz - Baila Mi Tumbao
TTITLE7=D.A.R - Cumbia De Tania
TTITLE8=Rene Touzet - Pa' Chismoso Tu
TTITLE9=Edwin Moralez - Hay Que Vacilar
TTITLE10=D.A.R - La Guaracha De La Corredera
TTITLE11=Miguel Duran - Cumbia De Mis Penas
TTITLE12=D.A.R - No Quedo Ni el Gato
TTITLE13=D.A.R - Cumbia De Mi Tierra
TTITLE14=D.A.R - Salsa Del ABCeDario
TTITLE15=Frank Souffort - La Salsa De La Changa
EXTD=
EXTT0=
EXTT1=
EXTT2=
EXTT3=
EXTT4=
EXTT5=
EXTT6=
EXTT7=
EXTT8=
EXTT9=
EXTT10=
EXTT11=
EXTT12=
EXTT13=
EXTT14=
EXTT15=
PLAYORDER=
